<?xml version="1.0" encoding="UTF-8"?>
<svg width="512" height="512" viewBox="0 0 512 512" fill="none" xmlns="http://www.w3.org/2000/svg">
  <circle cx="256" cy="256" r="256" fill="#3182CE"/>
  <path d="M256 128C203.07 128 160 171.07 160 224V288C160 340.93 203.07 384 256 384C308.93 384 352 340.93 352 288V224C352 171.07 308.93 128 256 128ZM320 288C320 323.35 291.35 352 256 352C220.65 352 192 323.35 192 288V224C192 188.65 220.65 160 256 160C291.35 160 320 188.65 320 224V288Z" fill="white"/>
  <circle cx="208" cy="240" r="16" fill="white"/>
  <circle cx="304" cy="240" r="16" fill="white"/>
  <path d="M256 288C238.33 288 224 302.33 224 320C224 337.67 238.33 352 256 352C273.67 352 288 337.67 288 320C288 302.33 273.67 288 256 288Z" fill="white"/>
</svg> 