<svg xmlns="http://www.w3.org/2000/svg" version="1.1" xmlns:xlink="http://www.w3.org/1999/xlink" xmlns:svgjs="http://svgjs.dev/svgjs" width="512" height="512"><svg width="512" height="512" viewBox="0 0 512 512" fill="none" xmlns="http://www.w3.org/2000/svg">
  <!-- 背景圆 -->
  <circle cx="256" cy="256" r="256" fill="#3182CE"></circle>
  
  <!-- 问号 -->
  <path d="M256 128C200 128 152 176 152 232C152 248 160 264 176 280C192 296 208 312 224 328C240 344 248 360 248 376C248 392 240 400 224 400C208 400 200 392 200 376C200 360 192 344 176 328C160 312 144 296 128 280C112 264 104 248 104 232C104 176 152 128 208 128C264 128 312 176 312 232C312 248 304 264 288 280C272 296 256 312 240 328C224 344 216 360 216 376C216 392 224 400 240 400C256 400 264 392 264 376C264 360 272 344 288 328C304 312 320 296 336 280C352 264 360 248 360 232C360 176 312 128 256 128Z" fill="white"></path>
  
  <!-- 点 -->
  <circle cx="256" cy="432" r="32" fill="white"></circle>
</svg><style>@media (prefers-color-scheme: light) { :root { filter: none; } }
@media (prefers-color-scheme: dark) { :root { filter: none; } }
</style></svg>