<?xml version="1.0" encoding="UTF-8"?>
<svg width="512" height="512" viewBox="0 0 512 512" fill="none" xmlns="http://www.w3.org/2000/svg">
  <rect width="512" height="512" rx="100" fill="#3182CE"/>
  <path d="M256 128C179.962 128 118 189.962 118 266C118 342.038 179.962 404 256 404C332.038 404 394 342.038 394 266C394 189.962 332.038 128 256 128ZM256 374C196.71 374 148 325.29 148 266C148 206.71 196.71 158 256 158C315.29 158 364 206.71 364 266C364 325.29 315.29 374 256 374Z" fill="white"/>
  <path d="M256 188C213.49 188 178 223.49 178 266C178 308.51 213.49 344 256 344C298.51 344 334 308.51 334 266C334 223.49 298.51 188 256 188ZM256 314C229.49 314 208 292.51 208 266C208 239.49 229.49 218 256 218C282.51 218 304 239.49 304 266C304 292.51 282.51 314 256 314Z" fill="white"/>
  <circle cx="256" cy="266" r="30" fill="white"/>
</svg> 